<svg id="icons" enable-background="new 0 0 64 64" height="512" viewBox="0 0 64 64" width="512" xmlns="http://www.w3.org/2000/svg"><path d="m3 53.001h58v9.999h-58z" fill="#844747"/><path d="m62 48c.55 0 1 .45 1 1v3.001c0 .55-.45 1-1 1-.55 0-1.45 0-2 0h-56c-.55 0-1.45 0-2 0-.55 0-1-.45-1-1v-3.001c0-.55.45-1 1-1h1 1.5s.95 0 1.5 0h18 1.5s.95 0 1.5 0h8 2 23z" fill="#965353"/><path d="m28 46c0 1.11-.89 2-2 2h-1-20c-1.1 0-2-.89-2-2v-17c0-1.1.9-2 2-2h21c1.11 0 2 .9 2 2v15zm-10-8.5c0-1.38-1.12-2.5-2.5-2.5s-2.5 1.12-2.5 2.5 1.12 2.5 2.5 2.5 2.5-1.12 2.5-2.5z" fill="#e6e9ed"/><path d="m26 11.5c0 5.24-3.84 9.57-8.86 10.36l-1.14 1.14-1.02-1.03c-5.56-.27-9.98-4.85-9.98-10.47 0-5.8 4.7-10.5 10.5-10.5s10.5 4.7 10.5 10.5z" fill="#5d9cec"/><path d="m38 16.001-3 3v-5c0-4.97 4.03-9 9-9h8v4c2.76 0 5 2.24 5 5v5l-3-3s-3.71 2-8 2c-4.28 0-8-2-8-2z" fill="#965353"/><path d="m57 19.001v4c0 4.27-2.44 7.98-6 9.8-1.5.771-3.2 1.2-5 1.2s-3.5-.43-5-1.2c-3.56-1.819-6-5.53-6-9.8v-4l3-3s3.72 2 8 2c4.29 0 8-2 8-2z" fill="#eac6bb"/><path d="m46 37.001-3 1-2-2v-3.2c1.5.771 3.2 1.2 5 1.2s3.5-.43 5-1.2v3.2l-2 2z" fill="#87bcf4"/><path d="m43 38.001 3-1 3 1 2-2h4c3.32 0 6 2.68 6 6v5.999h-25c1.11 0 2-.89 2-2v-2h-7v-1.999c0-3.32 2.68-6 6-6h4z" fill="#5d9cec"/><path d="m38 44v2c0 1.11-.89 2-2 2h-10c1.11 0 2-.89 2-2v-2h3z" fill="#ccd1d9"/><circle cx="15.5" cy="37.5" fill="#fff" r="2.5"/><path d="m51.999 12.101c1.103 0 2 .897 2 2v2l3 3v-5c0-2.76-2.24-5-5-5v-4h-3v4c0 1.657 1.343 3 3 3z" fill="#844747"/><path d="m53.999 16.101-.003.002v6.998c0 4.27-2.44 7.98-6 9.8-1.075.552-2.255.921-3.499 1.09.492.067.992.11 1.502.11 1.8 0 3.5-.43 5-1.2 3.56-1.819 6-5.53 6-9.8v-4z" fill="#d3b1a9"/><g fill="#4a89dc"><path d="m57.996 42.101v.29 5.609h3.003v-5.609-.29c0-3.32-2.68-6-6-6h-3.003c3.32 0 6 2.679 6 6z"/><path d="m22 12.492c-.256 0-.512-.098-.707-.293l-2.5-2.502c-.391-.391-.391-1.024 0-1.414.391-.391 1.023-.391 1.414 0l2.5 2.502c.391.391.391 1.024 0 1.414-.195.196-.451.293-.707.293z"/><path d="m19.5 14.988c-.256 0-.512-.098-.707-.293-.391-.391-.391-1.023 0-1.414l2.5-2.5c.391-.391 1.023-.391 1.414 0s.391 1.023 0 1.414l-2.5 2.5c-.195.196-.451.293-.707.293z"/><path d="m9 12.492c-.256 0-.512-.098-.707-.293-.391-.39-.391-1.023 0-1.414l2.5-2.502c.391-.391 1.023-.391 1.414 0 .391.39.391 1.023 0 1.414l-2.5 2.502c-.195.196-.451.293-.707.293z"/><path d="m11.5 14.988c-.256 0-.512-.098-.707-.293l-2.5-2.5c-.391-.391-.391-1.023 0-1.414s1.023-.391 1.414 0l2.5 2.5c.391.391.391 1.023 0 1.414-.195.196-.451.293-.707.293z"/><path d="m14.001 16.988c-.104 0-.211-.017-.316-.052-.523-.174-.807-.74-.632-1.265l3-9.004c.173-.523.736-.809 1.265-.632.523.174.807.74.632 1.265l-3 9.004c-.139.42-.53.684-.949.684z"/></g><path d="m53.999 63h2v-2.999c0-.553-.447-1-1-1-.552 0-1-.448-1-1 0-.553-.447-1-1-1h-41.998c-.553 0-1 .447-1 1 0 .552-.448 1-1 1-.553 0-1 .447-1 1v2.999h2z" fill="#656d78"/></svg>