<?xml version="1.0" encoding="iso-8859-1"?>
<!-- Generator: Adobe Illustrator 19.0.0, SVG Export Plug-In . SVG Version: 6.00 Build 0)  -->
<svg version="1.1" id="Layer_1" xmlns="http://www.w3.org/2000/svg" xmlns:xlink="http://www.w3.org/1999/xlink" x="0px" y="0px"
	 viewBox="0 0 512.001 512.001" style="enable-background:new 0 0 512.001 512.001;" xml:space="preserve">
<circle style="fill:#0F7986;" cx="256" cy="255.999" r="255.999"/>
<g>
	<path style="fill:#FFFFFF;" d="M263.079,253.67c27.66,0,50.083,22.423,50.083,50.083c0,27.66-22.423,50.083-50.083,50.083
		s-50.083-22.423-50.083-50.083C212.996,276.093,235.42,253.67,263.079,253.67z"/>
	<path style="fill:#FFFFFF;" d="M119.824,232.135H60.141v-6.125h59.683v-50.645h6.127v104.353h94.656v6.125h-97.719h-3.063v-3.063
		v-50.643L119.824,232.135z M402.591,232.135h59.683v-6.125h-59.683v-50.645h-6.125v104.353h-89.61v6.125h92.674h3.063v-3.063
		v-50.643L402.591,232.135z"/>
</g>
<path style="fill:#0F7986;" d="M263.082,261.435c5.724,0,11.189,1.142,16.179,3.208c5.186,2.148,9.845,5.29,13.743,9.188
	c3.898,3.896,7.04,8.557,9.188,13.743c2.066,4.989,3.208,10.456,3.208,16.181c0,5.724-1.142,11.189-3.208,16.179
	c-2.148,5.186-5.29,9.845-9.188,13.743c-3.898,3.898-8.557,7.042-13.743,9.188c-4.989,2.066-10.458,3.208-16.179,3.208
	c-5.726,0-11.192-1.142-16.181-3.208c-5.186-2.148-9.845-5.29-13.743-9.188c-3.896-3.898-7.04-8.557-9.188-13.743
	c-2.066-4.989-3.208-10.456-3.208-16.179c0-5.726,1.142-11.192,3.208-16.181c2.148-5.186,5.292-9.847,9.188-13.743
	c3.898-3.898,8.557-7.042,13.743-9.188C251.89,262.577,257.356,261.435,263.082,261.435z M228.697,319.963h12.246
	c-0.84-2.21-1.501-4.453-1.982-6.712c-0.514-2.423-0.824-4.874-0.928-7.336h-12.894c0.133,2.399,0.494,4.745,1.056,7.016
	c0.607,2.449,1.451,4.805,2.502,7.033L228.697,319.963L228.697,319.963z M245.584,319.963h15.337v-14.048h-18.583
	c0.11,2.319,0.423,4.635,0.941,6.932C243.819,315.242,244.589,317.621,245.584,319.963z M265.242,319.963h15.337
	c0.994-2.341,1.762-4.721,2.301-7.115c0.518-2.297,0.831-4.615,0.944-6.932h-18.583V319.963z M285.22,319.963h12.246
	c1.052-2.227,1.896-4.584,2.502-7.033c0.562-2.269,0.921-4.617,1.054-7.016h-12.894c-0.104,2.46-0.414,4.912-0.928,7.336
	c-0.481,2.258-1.14,4.502-1.98,6.712L285.22,319.963L285.22,319.963z M295.067,324.282h-11.739c-0.56,1.127-1.173,2.243-1.832,3.349
	c-0.757,1.266-1.585,2.524-2.48,3.764c-1.546,2.146-3.29,4.227-5.223,6.227c-1.147,1.187-2.363,2.348-3.654,3.481
	c3.222-0.604,6.304-1.619,9.185-2.983c3.964-1.876,7.556-4.423,10.625-7.496h0.004c1.162-1.16,2.252-2.399,3.255-3.702
	c0.655-0.849,1.276-1.731,1.861-2.639L295.067,324.282L295.067,324.282z M278.458,324.282h-13.218v15.31
	c1.786-1.44,3.444-2.928,4.965-4.462c1.995-2.013,3.768-4.101,5.318-6.251c0.686-0.95,1.342-1.938,1.969-2.956
	c0.335-0.549,0.657-1.096,0.963-1.643L278.458,324.282z M260.919,324.282h-13.218c0.306,0.547,0.629,1.094,0.963,1.643
	c0.626,1.019,1.283,2.006,1.969,2.956c1.552,2.15,3.324,4.238,5.318,6.251c1.524,1.535,3.177,3.023,4.965,4.462v-15.31
	L260.919,324.282z M242.83,324.282h-11.736c0.582,0.908,1.204,1.79,1.858,2.639c1.003,1.303,2.092,2.542,3.255,3.702h0.004
	c3.069,3.071,6.661,5.62,10.625,7.496c2.884,1.364,5.966,2.379,9.188,2.983c-1.289-1.133-2.509-2.294-3.654-3.481
	c-1.936-2-3.678-4.081-5.224-6.227c-0.897-1.24-1.725-2.496-2.48-3.764c-0.662-1.107-1.272-2.223-1.834-3.349L242.83,324.282
	L242.83,324.282z M231.093,283.226h11.944c0.52-1.036,1.089-2.073,1.7-3.104c0.708-1.195,1.473-2.374,2.287-3.534
	c1.563-2.223,3.333-4.385,5.307-6.471c1.206-1.276,2.491-2.524,3.849-3.74c-3.266,0.598-6.387,1.616-9.307,2.994
	c-3.98,1.878-7.585,4.431-10.665,7.514C234.286,278.807,232.566,280.934,231.093,283.226z M247.921,283.226h12.998V267.98
	c-1.792,1.479-3.459,3.023-4.998,4.615c-2.006,2.073-3.799,4.24-5.368,6.473c-0.64,0.908-1.24,1.827-1.801,2.748
	c-0.284,0.467-0.56,0.937-0.826,1.411L247.921,283.226L247.921,283.226z M265.239,283.226h12.996
	c-0.266-0.474-0.542-0.943-0.826-1.411c-0.56-0.921-1.162-1.838-1.801-2.748c-1.572-2.234-3.362-4.398-5.368-6.473
	c-1.539-1.592-3.208-3.135-4.998-4.615v15.247H265.239z M283.121,283.226h11.946c-0.584-0.908-1.204-1.788-1.858-2.637
	c-0.997-1.294-2.084-2.533-3.259-3.704c-3.078-3.085-6.683-5.636-10.665-7.514c-2.917-1.378-6.039-2.396-9.305-2.994
	c1.358,1.215,2.644,2.463,3.851,3.74c1.971,2.086,3.742,4.249,5.305,6.471c0.813,1.16,1.579,2.339,2.287,3.534
	C282.034,281.154,282.602,282.188,283.121,283.226L283.121,283.226z M297.463,287.547h-12.427c0.857,2.21,1.539,4.454,2.046,6.721
	c0.542,2.425,0.882,4.874,1.019,7.327h12.921c-0.133-2.401-0.492-4.747-1.054-7.016c-0.607-2.449-1.451-4.805-2.502-7.031H297.463z
	 M280.383,287.547h-15.143v14.048h18.552c-0.141-2.304-0.485-4.61-1.03-6.905C282.188,292.272,281.395,289.884,280.383,287.547z
	 M260.919,287.547h-15.143c-1.012,2.337-1.803,4.725-2.376,7.141c-0.545,2.294-0.891,4.602-1.03,6.905h18.552v-14.047H260.919z
	 M241.124,287.547h-12.427c-1.052,2.227-1.896,4.582-2.502,7.031c-0.562,2.269-0.924,4.615-1.056,7.016h12.923
	c0.137-2.454,0.474-4.901,1.019-7.327c0.507-2.267,1.189-4.511,2.046-6.721H241.124z"/>
<path style="fill:#FFFFFF;" d="M258.144,204.617h-67.131h-3.063v-3.063v-47.324h6.125v44.262h64.069v-61.811V55.187h6.125v81.494
	v23.524h64.067v-44.262h6.125v47.324v3.063h-3.063h-67.129v90.097h-6.125L258.144,204.617L258.144,204.617z"/>
<path style="fill:#FED298;" d="M309.253,371.19h-0.002c-3.819-2.824-8.368-1.147-11.977,1.951l-22.408,19.233l-1.674-5.75
	l-1.625-14.263l0.789-31.037l0.688-31.294c0.108-4.901-3.702-9.139-8.506-9.139l0,0c-4.805,0-8.842,3.777-8.96,8.676l-1.275,53.655
	l-2.321,0.082l0.829-12.506c0.324-4.89-3.704-9.011-8.504-9.139c-4.805-0.126-8.636,3.788-8.962,8.676l-0.899,13.595l-2.628,0.095
	l0.73-8.762c0.405-4.879-3.702-9.137-8.504-9.137l0,0c-4.807,0-8.552,3.795-8.96,8.678l-0.824,9.847l-3.151,0.113l0.212-5.031
	c0.208-4.892-3.702-9.137-8.506-9.137l0,0c-4.807,0-8.753,3.782-8.96,8.676l-0.441,10.427l-0.241,1.773l2.161,56.255
	c0.291,7.633,3.31,14.095,6.617,17.837c0.948,1.072,1.916,1.92,2.855,2.509l-2.143,58.351c17.204,3.647,35.041,5.578,53.333,5.578
	c2.875,0,5.735-0.064,8.59-0.159l-2.675-66.051c5.7-2.728,13.375-9.461,15.062-14.303l0.015,0.031l34.171-48.117
	c2.767-3.896,1.905-9.393-1.911-12.213L309.253,371.19L309.253,371.19z"/>
<path style="fill:#FF5B62;" d="M269.559,477.369l-70.279-0.826l-2.123,28.652c18.893,4.445,38.591,6.807,58.843,6.807
	c4.952,0,9.869-0.157,14.75-0.434l-1.193-34.197L269.559,477.369L269.559,477.369z"/>
<g>
	<path style="fill:#FFFFFF;" d="M267.537,464.585l-65.991-1.111l-0.064,13.026l65.991,1.111L267.537,464.585z"/>
	<path style="fill:#FFFFFF;" d="M258.746,308.599l-0.275,7.686l11.734,0.284l0.277-7.686
		C270.702,302.833,258.376,302.604,258.746,308.599z M301.944,373.695l-6.508,6.533l8.282,8.488l6.508-6.533
		C314.456,377.936,306.137,369.481,301.944,373.695z"/>
</g>
<path style="fill:#21D0C3;" d="M261.207,29.895c9.015,0,16.322,7.309,16.322,16.322c0,9.015-7.309,16.325-16.322,16.325
	c-9.015,0-16.325-7.309-16.325-16.325C244.882,37.204,252.192,29.895,261.207,29.895z"/>
<path style="fill:#FAD24D;" d="M334.463,99.615c9.013,0,16.322,7.309,16.322,16.325c0,9.013-7.309,16.322-16.322,16.322
	c-9.015,0-16.322-7.309-16.322-16.322C318.141,106.924,325.45,99.615,334.463,99.615z"/>
<path style="fill:#FF5B62;" d="M194.079,131.139c12.748,0,23.085,10.337,23.085,23.087c0,12.748-10.337,23.083-23.085,23.083
	s-23.087-10.337-23.087-23.083C170.992,141.474,181.328,131.139,194.079,131.139z"/>
<path style="fill:#21D0C3;" d="M122.889,163.822c6.375,0,11.54,5.168,11.54,11.54c0,6.375-5.166,11.542-11.54,11.542
	s-11.542-5.168-11.542-11.542C111.347,168.988,116.514,163.822,122.889,163.822z"/>
<path style="fill:#FAD24D;" d="M60.274,205.459c12.751,0,23.087,10.337,23.087,23.087c0,12.748-10.337,23.085-23.087,23.085
	c-12.748,0-23.085-10.337-23.085-23.085C37.189,215.795,47.524,205.459,60.274,205.459z"/>
<path style="fill:#FF5B62;" d="M462.409,217.003c6.377,0,11.542,5.168,11.542,11.542c0,6.372-5.166,11.54-11.542,11.54
	c-6.375,0-11.54-5.168-11.54-11.54C450.868,222.171,456.036,217.003,462.409,217.003z"/>
<path style="fill:#21D0C3;" d="M399.529,152.278c12.748,0,23.087,10.337,23.087,23.087c0,12.751-10.337,23.085-23.087,23.085
	c-12.748,0-23.083-10.334-23.083-23.085S386.78,152.278,399.529,152.278z"/>
<g>
</g>
<g>
</g>
<g>
</g>
<g>
</g>
<g>
</g>
<g>
</g>
<g>
</g>
<g>
</g>
<g>
</g>
<g>
</g>
<g>
</g>
<g>
</g>
<g>
</g>
<g>
</g>
<g>
</g>
</svg>
