<?xml version="1.0" encoding="iso-8859-1"?>
<!-- Generator: Adobe Illustrator 19.0.0, SVG Export Plug-In . SVG Version: 6.00 Build 0)  -->
<svg version="1.1" id="Layer_1" xmlns="http://www.w3.org/2000/svg" xmlns:xlink="http://www.w3.org/1999/xlink" x="0px" y="0px"
	 viewBox="0 0 511.997 511.997" style="enable-background:new 0 0 511.997 511.997;" xml:space="preserve">
<circle style="fill:#ECF0F1;" cx="255.999" cy="255.999" r="255.999"/>
<circle style="fill:#21D0C3;" cx="255.999" cy="255.999" r="255.999"/>
<path style="fill:#FFFFFF;" d="M89.573,61.492h332.854h49.549c6.004,0,10.915,4.915,10.915,10.915v64.959v237.266
	c-95.572,182.404-358.213,182.404-453.782-0.003V137.367V72.405c0-6.004,4.913-10.915,10.915-10.915h49.55V61.492z"/>
<g>
	<path style="fill:#ECF0F1;" d="M65.656,390.689h81.947v4.991H65.656V390.689z M65.656,415.017h58.047v4.991H65.656V415.017z
		 M65.656,402.854h81.947v4.991H65.656V402.854z"/>
	<path style="fill:#ECF0F1;" d="M215.023,390.689h81.947v4.991h-81.947V390.689z M215.023,415.017h58.047v4.991h-58.047
		L215.023,415.017L215.023,415.017z M215.023,402.854h81.947v4.991h-81.947V402.854z"/>
</g>
<path style="fill:#FAD24D;" d="M203.036,289.016h105.927v84.209H203.036V289.016z"/>
<path style="fill:#21D0C3;" d="M53.667,289.016h105.927v84.209H53.667V289.016z"/>
<path style="fill:#828282;" d="M40.025,61.492h431.951c6.004,0,10.917,4.913,10.917,10.917v21.831H29.11V72.408
	c0-6.004,4.913-10.917,10.917-10.917C40.027,61.492,40.025,61.492,40.025,61.492z"/>
<path style="fill:#FFFFFF;" d="M231.128,72.796H450.33c1.62,0,2.932,1.313,2.932,2.932v5.44c0,1.62-1.313,2.932-2.932,2.932H231.128
	c-1.62,0-2.932-1.313-2.932-2.932v-5.44C228.196,74.109,229.509,72.796,231.128,72.796z"/>
<circle style="fill:#21D0C3;" cx="50.881" cy="77.139" r="6.285"/>
<circle style="fill:#FAD24D;" cx="75.692" cy="77.139" r="6.285"/>
<circle style="fill:#FF5B62;" cx="100.503" cy="77.139" r="6.285"/>
<g>
	<rect x="53.667" y="106.242" style="fill:#ECF0F1;" width="404.667" height="133.488"/>
	<circle style="fill:#ECF0F1;" cx="388.888" cy="374.367" r="123.109"/>
</g>
<path style="fill:#21D0C3;" d="M388.894,264.396c60.733,0,109.972,49.237,109.972,109.975c0,60.736-49.237,109.975-109.972,109.975
	S278.92,435.109,278.92,374.371S328.158,264.396,388.894,264.396z"/>
<path style="fill:#FED198;" d="M339.828,384.045L339.828,384.045c2.476-3.446,6.804-3.261,10.72-1.613l24.315,10.235l-0.147-5.349
	l-2.518-12.577l-9.154-26.183l-9.138-26.427c-1.432-4.142,0.651-8.787,4.74-10.098c4.087-1.314,8.551,0.794,9.991,4.931
	l15.746,45.289l1.999-0.564l-4.123-10.411c-1.613-4.071,0.69-8.677,4.737-10.098c4.052-1.419,8.381,0.863,9.993,4.928l4.48,11.318
	l2.261-0.638l-3.016-7.253c-1.679-4.039,0.653-8.785,4.737-10.096c4.087-1.314,8.313,0.889,9.993,4.931l3.391,8.152l2.71-0.764
	l-1.556-4.223c-1.513-4.108,0.651-8.782,4.737-10.096c4.089-1.314,8.48,0.823,9.993,4.931l3.224,8.748l0.69,1.442l13.534,48.439
	c1.838,6.57,1.036,12.892-0.755,16.979c-0.514,1.17-1.104,2.159-1.742,2.914l12.058,35.867
	c-13.805,12.215-30.702,21.01-49.367,25.071l-11.888-47.269c-13.43-1.83-46.76-30.503-58.939-39.604
	c-3.42-2.557-4.189-7.467-1.713-10.912L339.828,384.045z"/>
<path style="fill:#F0B97D;" d="M412.365,481.827l-11.888-47.269c-13.433-1.83-46.76-30.503-58.939-39.604
	c-0.614-0.459-1.141-0.994-1.579-1.582c18.015,11.709,47.754,37.307,62.674,38.857l13.831,48.633
	c-1.356,0.349-2.726,0.667-4.1,0.968V481.827z"/>
<path style="fill:#FF5B62;" d="M402.61,463.506l59.547-19.911l3.754,9.267c-15.521,15.232-35.533,25.897-57.869,29.821
	L402.61,463.506z"/>
<g>
	<path style="fill:#FFFFFF;" d="M400.834,452.082l55.826-18.98l3.615,11.061l-55.826,18.983l-3.617-11.064H400.834z"/>
	<path style="fill:#FFFFFF;" d="M366.452,316.507l2.334,6.463l-9.902,3.449l-2.337-6.463c-1.838-5.086,8.582-8.651,9.907-3.449
		H366.452z M347.5,383.679L347.5,383.679l7.321,3.778l-4.724,9.482l-7.324-3.778c-4.761-2.458,0.005-11.922,4.724-9.482H347.5z"/>
</g>
<path style="fill:#FAD24D;" d="M361.848,151.974c22.253,0,40.292,18.039,40.292,40.292s-18.039,40.292-40.292,40.292
	c-22.251,0-40.292-18.039-40.292-40.292S339.595,151.974,361.848,151.974z"/>
<path style="fill:#EDB937;" d="M361.848,159.788c17.939,0,32.478,14.54,32.478,32.478c0,17.936-14.539,32.478-32.478,32.478
	c-17.936,0-32.478-14.54-32.478-32.478C329.371,174.33,343.909,159.788,361.848,159.788z"/>
<g>
	<path style="fill:#FFFFFF;" d="M353.646,181.632c0-2.592,0.527-4.68,1.587-6.267s2.644-2.618,4.764-3.093v-2.846h4.926v2.846
		c2.154,0.438,3.77,1.45,4.845,3.04c1.076,1.587,1.616,3.693,1.616,6.322v1.204h-5.695v-1.587c0-1.387-0.264-2.363-0.792-2.93
		c-0.53-0.564-1.27-0.847-2.217-0.847c-0.949,0-1.69,0.283-2.217,0.847c-0.53,0.567-0.794,1.542-0.794,2.93
		c0,1.314,0.291,2.444,0.876,3.394c0.585,0.949,1.314,1.833,2.19,2.655c0.876,0.821,1.815,1.624,2.818,2.408
		c1.005,0.784,1.943,1.671,2.819,2.655c0.876,0.986,1.605,2.125,2.19,3.42c0.585,1.295,0.876,2.853,0.876,4.68
		c0,2.628-0.548,4.743-1.642,6.351c-1.094,1.605-2.718,2.628-4.87,3.064v2.791h-4.926v-2.791c-2.19-0.438-3.822-1.458-4.899-3.064
		c-1.076-1.608-1.616-3.722-1.616-6.351v-2.628h5.692v3.011c0,1.387,0.283,2.352,0.85,2.901c0.567,0.548,1.324,0.821,2.272,0.821
		c0.949,0,1.708-0.272,2.272-0.821c0.564-0.548,0.847-1.513,0.847-2.901c0-1.314-0.291-2.444-0.876-3.394
		c-0.582-0.949-1.314-1.833-2.19-2.655c-0.876-0.821-1.815-1.624-2.819-2.408c-1.002-0.784-1.943-1.668-2.817-2.655
		c-0.876-0.986-1.608-2.127-2.19-3.423c-0.582-1.295-0.873-2.853-0.873-4.68L353.646,181.632L353.646,181.632z"/>
	<path style="fill:#FFFFFF;" d="M347.165,122.985v27.752h-2.275v-27.752H347.165z M360.002,114.625v23.405h-2.275v-23.405H360.002z
		 M374.145,122.985v27.752h-2.275v-27.752H374.145z"/>
</g>
<path style="fill:#ECF0F1;" d="M323.839,309.819c-1.173-0.643-1.6-2.117-0.957-3.29c0.643-1.173,2.117-1.603,3.29-0.96l16.89,9.291
	c1.173,0.643,1.603,2.117,0.96,3.29c-0.643,1.173-2.117,1.603-3.29,0.96L323.839,309.819z M342.939,332.39
	c1.233-0.509,2.647,0.076,3.158,1.308c0.511,1.233-0.076,2.649-1.308,3.158l-25.218,10.435c-1.233,0.511-2.647-0.076-3.158-1.308
	s0.076-2.647,1.308-3.158L342.939,332.39z M412.488,306.013c1.233-0.512,2.649,0.076,3.158,1.308
	c0.512,1.233-0.076,2.647-1.308,3.158l-25.218,10.435c-1.233,0.511-2.649-0.076-3.158-1.306c-0.509-1.233,0.076-2.649,1.308-3.158
	l25.218-10.435V306.013z M381.414,285.359c0.351-1.287,1.682-2.046,2.969-1.695c1.29,0.351,2.049,1.684,1.697,2.972l-5.096,18.592
	c-0.351,1.287-1.684,2.046-2.972,1.695c-1.288-0.351-2.049-1.684-1.695-2.972L381.414,285.359z M346.31,279.725
	c-0.412-1.27,0.285-2.636,1.558-3.048c1.27-0.412,2.636,0.285,3.048,1.558l8.524,26.448c0.412,1.27-0.285,2.634-1.558,3.045
	c-1.27,0.412-2.636-0.285-3.045-1.558l-8.527-26.448L346.31,279.725L346.31,279.725z"/>
<path style="fill:#FAD24D;" d="M302.779,118.995c11.546,0,20.908,9.362,20.908,20.908c0,11.546-9.362,20.908-20.908,20.908
	s-20.908-9.362-20.908-20.908C281.871,128.357,291.231,118.995,302.779,118.995z"/>
<path style="fill:#EDB937;" d="M302.779,123.05c9.307,0,16.853,7.546,16.853,16.853c0,9.309-7.546,16.853-16.853,16.853
	c-9.309,0-16.853-7.546-16.853-16.853C285.926,130.597,293.469,123.05,302.779,123.05z"/>
<path style="fill:#FFFFFF;" d="M298.521,134.385c0-1.343,0.275-2.429,0.823-3.253c0.548-0.823,1.372-1.358,2.471-1.605v-1.477h2.557
	v1.477c1.118,0.229,1.957,0.753,2.513,1.577c0.559,0.823,0.839,1.917,0.839,3.282v0.625h-2.953v-0.823
	c0-0.722-0.137-1.228-0.412-1.521c-0.275-0.291-0.659-0.441-1.152-0.441c-0.493,0-0.876,0.147-1.152,0.441
	c-0.275,0.293-0.412,0.8-0.412,1.521c0,0.682,0.152,1.27,0.454,1.76c0.301,0.49,0.682,0.952,1.136,1.377
	c0.454,0.427,0.941,0.842,1.463,1.252c0.522,0.406,1.007,0.865,1.463,1.377c0.454,0.511,0.834,1.104,1.136,1.776
	c0.301,0.674,0.454,1.482,0.454,2.429c0,1.364-0.283,2.463-0.852,3.295c-0.567,0.831-1.408,1.361-2.526,1.59v1.448h-2.557v-1.448
	c-1.136-0.229-1.983-0.758-2.542-1.59c-0.559-0.834-0.836-1.933-0.836-3.295v-1.361h2.953v1.561c0,0.722,0.147,1.223,0.441,1.506
	c0.293,0.283,0.688,0.427,1.178,0.427c0.493,0,0.884-0.142,1.178-0.427c0.293-0.283,0.441-0.784,0.441-1.506
	c0-0.682-0.152-1.27-0.454-1.76c-0.301-0.49-0.682-0.952-1.136-1.377c-0.454-0.425-0.942-0.842-1.464-1.249
	c-0.519-0.406-1.007-0.865-1.463-1.377c-0.454-0.511-0.834-1.104-1.136-1.776c-0.301-0.674-0.454-1.482-0.454-2.429v-0.005H298.521z
	"/>
<path style="fill:#FAD24D;" d="M405.572,129.666c6.309,0,11.424,5.115,11.424,11.424s-5.112,11.424-11.424,11.424
	c-6.309,0-11.424-5.115-11.424-11.424S399.263,129.666,405.572,129.666z"/>
<path style="fill:#EDB937;" d="M405.572,131.882c5.086,0,9.207,4.123,9.207,9.207c0,5.086-4.123,9.207-9.207,9.207
	c-5.086,0-9.209-4.123-9.209-9.207C396.362,136.003,400.485,131.882,405.572,131.882z"/>
<path style="fill:#FFFFFF;" d="M403.245,138.073c0-0.735,0.152-1.327,0.451-1.776c0.301-0.451,0.751-0.743,1.35-0.876v-0.805h1.398
	v0.805c0.611,0.124,1.07,0.412,1.374,0.863c0.304,0.451,0.459,1.049,0.459,1.791v0.341h-1.613v-0.451
	c0-0.393-0.076-0.669-0.226-0.829c-0.152-0.16-0.359-0.242-0.63-0.242c-0.27,0-0.477,0.081-0.63,0.242
	c-0.15,0.16-0.223,0.438-0.223,0.829c0,0.372,0.081,0.693,0.247,0.963c0.166,0.267,0.372,0.519,0.622,0.753
	c0.247,0.234,0.514,0.462,0.8,0.682c0.283,0.223,0.551,0.475,0.8,0.753c0.247,0.28,0.454,0.603,0.619,0.97
	c0.166,0.367,0.25,0.807,0.25,1.327c0,0.745-0.155,1.345-0.467,1.799c-0.309,0.456-0.772,0.745-1.382,0.871v0.792h-1.398v-0.792
	c-0.619-0.126-1.083-0.414-1.387-0.871c-0.304-0.454-0.456-1.055-0.456-1.799v-0.745h1.613v0.852c0,0.393,0.081,0.669,0.242,0.823
	c0.16,0.155,0.375,0.234,0.643,0.234c0.27,0,0.485-0.079,0.646-0.234c0.16-0.155,0.242-0.43,0.242-0.823
	c0-0.372-0.081-0.693-0.25-0.963c-0.166-0.267-0.372-0.519-0.619-0.753c-0.25-0.234-0.514-0.462-0.8-0.685
	c-0.285-0.221-0.551-0.472-0.8-0.753c-0.25-0.28-0.456-0.603-0.622-0.97c-0.166-0.367-0.25-0.81-0.25-1.327L403.245,138.073z"/>
<g>
</g>
<g>
</g>
<g>
</g>
<g>
</g>
<g>
</g>
<g>
</g>
<g>
</g>
<g>
</g>
<g>
</g>
<g>
</g>
<g>
</g>
<g>
</g>
<g>
</g>
<g>
</g>
<g>
</g>
</svg>
