<?xml version="1.0" encoding="iso-8859-1"?>
<!-- Generator: Adobe Illustrator 19.0.0, SVG Export Plug-In . SVG Version: 6.00 Build 0)  -->
<svg version="1.1" id="Layer_1" xmlns="http://www.w3.org/2000/svg" xmlns:xlink="http://www.w3.org/1999/xlink" x="0px" y="0px"
	 viewBox="0 0 511.997 511.997" style="enable-background:new 0 0 511.997 511.997;" xml:space="preserve">
<circle style="fill:#21D0C3;" cx="255.999" cy="255.999" r="255.999"/>
<path style="fill:#0F7986;" d="M165.18,65.542h325.788c11.609,0,21.021,9.412,21.021,21.021V304.63
	c0,11.609-9.412,21.021-21.021,21.021H165.18c-11.609,0-21.021-9.412-21.021-21.021V86.562
	C144.16,74.953,153.571,65.542,165.18,65.542z"/>
<rect x="173.889" y="86.56" style="fill:#FFFFFF;" width="308.376" height="196.106"/>
<circle style="fill:#15BDB2;" cx="328.077" cy="303.456" r="13.96"/>
<path style="fill:#FAD24D;" d="M344.43,121.335l-35.208,34.534l37.291,32.273c7.491-8.651,12.023-19.932,12.023-32.273
	C358.537,142.422,353.156,130.233,344.43,121.335z"/>
<path style="fill:#15BDB2;" d="M310.659,99.066v49.317l35.208-34.534C336.915,104.727,324.448,99.066,310.659,99.066z"/>
<path style="fill:#FF5B62;" d="M306.507,108.937c-27.24,0-49.317,22.081-49.317,49.317s22.081,49.317,49.317,49.317
	c14.896,0,28.25-6.602,37.291-17.042l-37.291-32.273V108.94V108.937z"/>
<g>
	<path style="fill:#D1D2D4;" d="M245.929,223.207h220.187v5.967H245.929V223.207z M245.929,262.366h126.738v5.967H245.929V262.366z
		 M245.929,249.312h220.187v5.967H245.929V249.312z M245.929,236.256h220.187v5.967H245.929V236.256z"/>
	<path style="fill:#D1D2D4;" d="M376.921,125.902h89.819v5.967h-89.819V125.902z M376.921,165.061h51.697v5.967h-51.697V165.061z
		 M376.921,152.006h89.819v5.967h-89.819V152.006z M376.921,138.952h89.819v5.967h-89.819V138.952z"/>
</g>
<path style="fill:#FED298;" d="M43.237,409.717l74.548,56.749c12.415-17.7,16.611-16.32,32.433-24.137
	c47.735-23.583,96.547-37.149,58.508-73.307c6.505-7.488,10.936-13.325,8.252-21.747c-2.824-8.853-9.645-9.645-15.714-16.716
	c24.766-39.119-7.981-35.277-22.329-41.626c24.486-34.251,23.728-28.295,52.895-60.643c4.514-5.007,10.557-11.79,13.016-17.611
	c3.876-9.196-6.177-16.637-14.072-14.704c-9.9,2.416-56.864,51.521-67.925,62.873c-14.487,14.865-19.51,19.835-36.271,29.361
	c-18.563,10.547-23.837,10.027-34.977,31.704c-15.544,30.264-27.9,62.026-48.357,89.803L43.237,409.717z"/>
<path style="fill:#0F7986;" d="M31.426,396.075l99.915,76.038c1.98,1.508,2.366,4.356,0.857,6.338l-24.166,31.759
	c-1.503,1.98-4.351,2.366-6.332,0.857L1.779,435.03c-1.98-1.508-2.366-4.356-0.857-6.338l24.166-31.751
	c1.503-1.98,4.356-2.366,6.338-0.863L31.426,396.075z"/>
<path style="fill:#FFFFFF;" d="M230.196,199.862l-7.361,6.122c0,0,6.993,2.853,11.775,9.826l7.25-8.344
	c1.519-1.747-4.49-10.878-11.664-7.601L230.196,199.862L230.196,199.862z"/>
<path style="fill:#FAD24D;" d="M63.474,220.353c0.821,1.382,1.112,3.082,0.677,4.761c-0.871,3.333-4.281,5.336-7.614,4.469
	c-3.333-0.868-5.338-4.281-4.472-7.614c0.792-3.04,3.699-4.97,6.731-4.632l53.685-97.444c-0.944-1.427-1.303-3.234-0.839-5.02
	c0.868-3.333,4.278-5.336,7.614-4.469c3.407,0.886,5.362,4.362,4.433,7.743l77.019,30.917c0.661-0.226,1.364-0.343,2.083-0.335
	l61.969-106.087l-6.563-2.938l21.231-22.437l-3.423,30.411l-6.389-2.861l-62.025,106.248c1.189,1.487,1.687,3.496,1.173,5.477
	c-0.868,3.336-4.281,5.338-7.614,4.469c-3.528-0.915-5.529-4.706-4.31-8.131l-76.594-30.744c-0.91,0.409-1.922,0.606-2.959,0.538
	l-53.808,97.683L63.474,220.353z"/>
<g>
</g>
<g>
</g>
<g>
</g>
<g>
</g>
<g>
</g>
<g>
</g>
<g>
</g>
<g>
</g>
<g>
</g>
<g>
</g>
<g>
</g>
<g>
</g>
<g>
</g>
<g>
</g>
<g>
</g>
</svg>
