<?xml version="1.0" encoding="iso-8859-1"?>
<!-- Generator: Adobe Illustrator 19.0.0, SVG Export Plug-In . SVG Version: 6.00 Build 0)  -->
<svg version="1.1" id="Layer_1" xmlns="http://www.w3.org/2000/svg" xmlns:xlink="http://www.w3.org/1999/xlink" x="0px" y="0px"
	 viewBox="0 0 512 512" style="enable-background:new 0 0 512 512;" xml:space="preserve">
<circle style="fill:#21D0C3;" cx="256" cy="256" r="256"/>
<path style="fill:#666666;" d="M65.979,52.788h380.037c12.485,0,22.702,10.217,22.702,22.702v234.107H43.282V75.49
	c0-12.485,10.217-22.702,22.702-22.702H65.979z"/>
<path style="fill:#ECF0F1;" d="M58.695,294.178h394.609V75.49c0-3.977-3.308-7.289-7.284-7.289H65.984
	c-3.977,0-7.284,3.307-7.284,7.289v218.69h-0.005V294.178z"/>
<path style="fill:#FF5B62;" d="M164.479,228.482c8.456-8.397,8.356-22.203-0.222-30.844c-5.806-5.848-14.004-7.829-21.315-5.898
	l-7.122-7.173c-0.85-0.854-2.227-0.877-3.067-0.046l-11.224,11.14c-0.836,0.831-0.826,2.208,0.023,3.067l6.707,6.753
	c-2.545,7.584-0.744,16.387,5.38,22.554C142.216,236.675,156.026,236.873,164.479,228.482z"/>
<path style="fill:#FAD24D;" d="M136.646,168.465l-16.23-16.35c-5.556-5.598-14.678-5.63-20.276-0.074l-11.63,11.542
	c-5.598,5.561-5.63,14.683-0.074,20.281l16.235,16.355c-3.751,14.448-0.148,31.597,15.228,47.084l63.726-63.263
	c-15.376-15.487-32.498-19.214-46.977-15.57v-0.006H136.646z"/>
<path style="fill:#EDB937;" d="M88.815,163.283l-0.304,0.3c-5.598,5.561-5.63,14.683-0.074,20.281l16.235,16.355
	c-3.751,14.448-0.148,31.597,15.228,47.084l1.935-1.921c-14.101-15.575-17.306-32.507-13.569-46.885l-17.044-17.168
	c-4.846-4.882-5.64-12.318-2.401-18.041L88.815,163.283z"/>
<path style="fill:#C2C2C4;" d="M287.126,412.428l36.096,17.912H152.899l29.121-17.912v-55.305h105.105v55.305H287.126z"/>
<path style="fill:#B6B6B8;" d="M287.126,407.159l-105.105-50.035h105.105V407.159z"/>
<path style="fill:#ECF0F1;" d="M182.021,418.752h105.105l36.096,8.101v3.487h-85.161h-85.166v-3.487l29.121-8.101H182.021z"/>
<path style="fill:#FFFFFF;" d="M468.718,309.596v24.826c0,12.49-11.261,22.702-25.024,22.702H68.307
	c-13.764,0-25.024-10.212-25.024-22.702v-24.826H468.718z"/>
<g>
	
		<rect x="192.714" y="288.088" transform="matrix(0.9412 0.3378 -0.3378 0.9412 125.555 -45.7182)" style="fill:#4D4D4D;" width="2.849" height="99.614"/>
	
		<rect x="198.081" y="290.023" transform="matrix(0.9412 0.3378 -0.3378 0.9412 126.5244 -47.4174)" style="fill:#4D4D4D;" width="2.849" height="99.614"/>
</g>
<rect x="194.443" y="289.049" transform="matrix(-0.9412 -0.3378 0.3378 -0.9412 267.5798 724.2758)" style="fill:#666666;" width="4.73" height="99.614"/>
<path style="fill:#FFFFFF;" d="M220.814,272.014l-3.146,21.412l-8.05-2.886L220.814,272.014z"/>
<rect x="175.191" y="385.657" transform="matrix(0.9412 0.3378 -0.3378 0.9412 141.3581 -37.862)" style="fill:#ECF0F1;" width="8.551" height="3.146"/>
<path style="fill:#15BDB2;" d="M175.74,394.24l2.129,0.763c1.631,0.587,3.436-0.267,4.023-1.898l1.062-2.96l-8.05-2.891l-1.062,2.96
	c-0.587,1.631,0.267,3.436,1.898,4.023V394.24z"/>
<path style="fill:#4D4D4D;" d="M221.165,270.517l0.337,0.12l-1.866,9.409l-3.002-1.076L221.165,270.517z"/>
<path style="fill:#FF5B62;" d="M101.987,171.615L36.073,285.824v131.898h22.157l-9.326-131.898l61.555-109.779
	C112.735,171.042,104.957,167.231,101.987,171.615z"/>
<path style="fill:#807D7D;" d="M0.009,451.526h511.982v-21.187H0.009V451.526z"/>
<g>
	<path style="fill:#FAD24D;" d="M111.733,417.726H24.752c-6.42,0-14.179,12.882-7.755,12.882h99.909
		C123.326,430.608,118.157,417.726,111.733,417.726z"/>
	<path style="fill:#FAD24D;" d="M42.493,276.895c-5.076,0-9.191,4.115-9.191,9.191c0,5.076,4.115,9.191,9.191,9.191
		s9.191-4.115,9.191-9.191C51.684,281.01,47.569,276.895,42.493,276.895z"/>
</g>
<path style="fill:#FFFFFF;" d="M42.493,281.551c-2.503,0-4.535,2.032-4.535,4.535c0,2.503,2.032,4.535,4.535,4.535
	c2.508,0,4.535-2.028,4.535-4.535C47.028,283.579,45.001,281.551,42.493,281.551z"/>
<path style="fill:#FF5B62;" d="M96.093,413.787l-23.718-3.944v7.885h23.718V413.787z"/>
<g>
	<path style="fill:#FAD24D;" d="M279.126,364.121h45.44c2.545,0,4.623,2.083,4.623,4.628v56.968c0,2.545-2.078,4.628-4.623,4.628
		h-45.439c-2.545,0-4.628-2.083-4.628-4.628v-56.968C274.498,366.204,276.581,364.121,279.126,364.121z"/>
	<path style="fill:#FAD24D;" d="M329.189,377.136h12.789c4.226,0,7.681,2.993,7.681,6.66v31.468c0,3.663-3.455,6.66-7.681,6.66
		h-12.789v-5.298h12.789c0.721,0,2.301-0.471,2.301-1.362v-31.468c0-0.891-1.58-1.362-2.301-1.362h-12.789v-5.293V377.136z"/>
</g>
<path style="fill:#EDB937;" d="M322.963,430.34v-66.22h1.603c2.545,0,4.628,2.051,4.628,4.549v57.12
	c0,2.503-2.083,4.554-4.628,4.554h-1.603V430.34z"/>
<path style="fill:#FF5B62;" d="M292.586,395.136h13.768v12.235h-13.768V395.136z"/>
<path style="fill:#ED4C54;" d="M292.586,395.136h13.768l-0.767-2.536h-11.88L292.586,395.136z"/>
<path style="fill:#FFFFFF;" d="M300.031,364.121v29.694c-0.005,0.402-0.956,0.42-0.965,0v-29.694H300.031z"/>
<path style="fill:#666666;" d="M41.006,459.212H470.99v-7.681H41.006V459.212z"/>
<path style="fill:#D0D1D4;" d="M256,339.54c3.949,0,7.173-3.224,7.173-7.173c0-3.949-3.22-7.173-7.173-7.173
	c-3.949,0-7.173,3.22-7.173,7.173C248.827,336.316,252.047,339.54,256,339.54z"/>
<path style="fill:#15BDB2;" d="M374.092,367.812H478.92v3.779c-4.96,6.757-4.143,14.272,0,19.902v3.779H374.092
	c-16.374,0-16.378-27.454,0-27.454V367.812z"/>
<path style="fill:#FFFFFF;" d="M478.921,391.487c-4.231-6.633-4.549-13.265,0-19.902H374.092c-4.928,0-8.969,4.485-8.969,9.949
	s4.041,9.949,8.969,9.949H478.92v0.005H478.921z"/>
<path style="fill:#ECF0F1;" d="M477.914,373.192c0.304-0.536,0.638-1.067,1.002-1.603H374.088c-10.027,0-12.836,15.344-2.725,19.422
	c-6.906-3.589-4.328-15.824,2.919-17.824H477.91L477.914,373.192z"/>
<path style="fill:#FF5B61;" d="M487.908,395.265H366.311v4.822c5.76,8.632,4.804,18.235,0,25.431v4.827h121.599
	C506.906,430.344,506.906,395.265,487.908,395.265z"/>
<path style="fill:#FFFFFF;" d="M366.311,425.518c4.909-8.475,5.28-16.951,0-25.431h121.599c5.718,0,10.411,5.732,10.411,12.715
	s-4.693,12.715-10.411,12.715H366.311V425.518z"/>
<path style="fill:#ECF0F1;" d="M367.478,402.138c-0.351-0.684-0.739-1.367-1.164-2.046h121.599c11.63,0,14.891,19.607,3.159,24.817
	c8.009-4.586,5.02-20.221-3.385-22.771H367.483H367.478z"/>
<path style="fill:#FBB429;" d="M469.433,340.311h-80.939v3.774c3.834,6.757,3.201,14.272,0,19.902v3.774h80.939
	c12.646,0,12.646-27.454,0-27.454L469.433,340.311L469.433,340.311z"/>
<path style="fill:#FFFFFF;" d="M388.494,363.987c3.266-6.633,3.515-13.27,0-19.902h80.939c3.806,0,6.928,4.485,6.928,9.954
	c0,5.464-3.122,9.949-6.928,9.949L388.494,363.987L388.494,363.987z"/>
<path style="fill:#ECF0F1;" d="M389.27,345.687c-0.236-0.536-0.49-1.067-0.776-1.603h80.939c7.741,0,9.912,15.344,2.102,19.422
	c5.335-3.589,3.339-15.824-2.254-17.819h-80.016H389.27z"/>
<path style="fill:#FFFFFF;" d="M105.742,171.98c-1.529,0-2.772,1.238-2.772,2.772c0,1.529,1.238,2.767,2.772,2.767
	c1.533,0,2.772-1.238,2.772-2.767C108.513,173.218,107.275,171.98,105.742,171.98z"/>
<path style="fill:#D0D1D4;" d="M203.863,353.013l7.981,3.132l27.029-68.926l-7.985-3.132l-27.029,68.926H203.863z"/>
<path style="fill:#FF5B61;" d="M202.099,369.262l9.746-13.117l-7.981-3.132L202.099,369.262z"/>
<path style="fill:#FF5B62;" d="M235.17,278.004l4.707,1.847c1.293,0.508,1.898,2.079,1.344,3.487l-12.567,32.04l-9.413-3.691
	l12.567-32.045c0.554-1.408,2.065-2.153,3.357-1.644L235.17,278.004z"/>
<path style="fill:#666666;" d="M201.521,370.259l0.332,0.13l3.902-6.046l-2.979-1.169l-1.257,7.08v0.005H201.521z"/>
<path style="fill:#D0D1D4;" d="M230.653,282.613l11.469,4.596l0.721,0.291l-0.309,0.785l-9.358,23.865l-0.097,0.245l-0.213,0.157
	l-1.76,1.271c-0.868,0.568-1.796-0.494-0.831-1.371l1.543-1.118l8.956-22.835l-10.748-4.305l0.624-1.575L230.653,282.613z"/>
<path style="fill:#1B1B1A;" d="M162.503,382.033c0.942,2.028,1.719,3.478,1.967,3.381c0.25-0.097-0.162-1.686-0.836-3.82
	L162.503,382.033z"/>
<g>
	<path style="fill:#21D0C3;" d="M130.236,290.886c0.236,0.605-0.065,1.288-0.67,1.529l-2.351,0.919
		c-0.605,0.236-1.288-0.065-1.524-0.67l-3.095-7.939c-0.236-0.605,0.065-1.288,0.67-1.524l2.351-0.919
		c0.605-0.236,1.288,0.065,1.529,0.67l3.095,7.939L130.236,290.886z"/>
	<path style="fill:#21D0C3;" d="M123.885,291.754c0,0-2.776,2.665-3.492,4.236c-0.716,1.57-0.845,3.067,0.25,5.417
		c1.095,2.351,9.113,18.373,10.022,19.791c0.91,1.418,2.004,0.817,2.301-0.009c0.3-0.826-0.286-2.55-0.712-2.739
		c-0.425-0.19-0.125,1.113-1.16,0.808c-1.035-0.304-5.178-10.924-6.906-15.126c-1.728-4.203-1.986-6.231,1.889-5.612
		L123.885,291.754z"/>
</g>
<path style="fill:#EC4953;" d="M130.134,287.615l-6.577,2.563c-0.605,0.236-0.905,0.924-0.67,1.529l13.506,34.645
	c0,0,10.97,27.302,19.099,44.021l5.417-2.111c-5.335-17.805-15.741-45.333-15.741-45.333l-13.506-34.645
	C131.427,287.68,130.744,287.376,130.134,287.615z"/>
<path style="fill:#666666;" d="M130.134,287.615l-6.577,2.563c-0.605,0.236-0.905,0.924-0.67,1.529l13.506,34.645
	c0,0,10.97,27.302,19.099,44.021l5.417-2.111c-5.335-17.805-15.741-45.333-15.741-45.333l-13.506-34.645
	C131.427,287.68,130.744,287.376,130.134,287.615z"/>
<path style="fill:#21D0C3;" d="M136.544,326.976l-0.937-2.411l8.933-3.482l0.937,2.406l-8.933,3.482V326.976z"/>
<path style="fill:#FFFFFF;" d="M155.486,370.375c3.737,7.686,6.869,13.135,8.06,12.669c1.192-0.466-0.19-6.595-2.642-14.78
	L155.486,370.375z"/>
<path style="fill:#D0D1D4;" d="M155.925,311.6l-5.916,1.746l-6.101-20.674l5.916-1.746L155.925,311.6z"/>
<path style="fill:#FF5B62;" d="M143.907,292.673c0,0-3.779-0.36-3.802-7.293c-0.023-6.932-1.39-12.715-5.252-15.736
	c0,0,15.796,4.041,14.974,21.283l-5.916,1.746H143.907z"/>
<path style="fill:#0E7886;" d="M163.26,329.535c-3.834-9.857-7.34-17.935-7.34-17.935l-5.912,1.746c0,0,1.436,8.683,3.57,19.043
	L163.26,329.535z"/>
<path style="fill:#FF5B62;" d="M153.579,332.395c1.483,7.201,3.303,15.209,5.215,21.676c4.651,15.754,23.5,71.189,27.158,70.196l0,0
	c0,0,0.005,0,0.005-0.005h0.005l0,0c3.612-1.15-10.655-57.938-15.307-73.692c-1.907-6.466-4.73-14.179-7.395-21.029L153.579,332.395
	z"/>
<path style="fill:#FFFFFF;" d="M143.912,349.456h71.558v72.875c0,4.42-3.617,8.032-8.036,8.032h-55.491
	c-4.42,0-8.036-3.617-8.036-8.032v-72.875H143.912z"/>
<g>
	<path style="fill:#ECF0F1;" d="M214.75,425.648c-1.271,2.776-4.074,4.716-7.312,4.716h-55.49c-3.238,0-6.041-1.94-7.312-4.716
		h70.118H214.75z"/>
	<path style="fill:#ECF0F1;" d="M143.912,354.19c3.427,0.231,6.138,3.085,6.138,6.572s-2.712,6.342-6.138,6.572V354.19z
		 M215.47,354.19L215.47,354.19v13.145c-3.427-0.231-6.138-3.085-6.138-6.572S212.043,354.422,215.47,354.19z M215.47,390.623
		L215.47,390.623v13.145c-3.427-0.231-6.138-3.085-6.138-6.572C209.332,393.709,212.043,390.855,215.47,390.623z M143.912,403.768
		L143.912,403.768v-13.145c3.427,0.231,6.138,3.085,6.138,6.572C150.05,400.682,147.339,403.538,143.912,403.768z M179.693,409.639
		L179.693,409.639c3.64,0,6.586,2.951,6.586,6.586c0,3.64-2.951,6.586-6.586,6.586c-3.64,0-6.586-2.951-6.586-6.586
		C173.107,412.585,176.058,409.639,179.693,409.639z M155.542,409.639L155.542,409.639c3.64,0,6.586,2.951,6.586,6.586
		c0,3.64-2.951,6.586-6.586,6.586c-3.64,0-6.586-2.951-6.586-6.586C148.955,412.585,151.906,409.639,155.542,409.639z
		 M203.845,409.639L203.845,409.639c3.64,0,6.586,2.951,6.586,6.586c0,3.64-2.951,6.586-6.586,6.586
		c-3.64,0-6.586-2.951-6.586-6.586C197.259,412.585,200.21,409.639,203.845,409.639z M191.771,390.609L191.771,390.609
		c3.64,0,6.586,2.951,6.586,6.586c0,3.64-2.951,6.586-6.586,6.586c-3.64,0-6.586-2.951-6.586-6.586
		C185.185,393.556,188.137,390.609,191.771,390.609z M167.62,390.609L167.62,390.609c3.64,0,6.586,2.951,6.586,6.586
		c0,3.64-2.951,6.586-6.586,6.586c-3.64,0-6.586-2.951-6.586-6.586C161.033,393.556,163.985,390.609,167.62,390.609z
		 M179.693,373.206L179.693,373.206c3.64,0,6.586,2.951,6.586,6.586c0,3.64-2.951,6.586-6.586,6.586
		c-3.64,0-6.586-2.947-6.586-6.586C173.107,376.153,176.058,373.206,179.693,373.206z M155.542,373.206L155.542,373.206
		c3.64,0,6.586,2.951,6.586,6.586c0,3.64-2.951,6.586-6.586,6.586c-3.64,0-6.586-2.947-6.586-6.586
		C148.956,376.153,151.906,373.206,155.542,373.206z M203.845,373.206L203.845,373.206c3.64,0,6.586,2.951,6.586,6.586
		c0,3.64-2.951,6.586-6.586,6.586c-3.64,0-6.586-2.947-6.586-6.586C197.259,376.153,200.21,373.206,203.845,373.206z
		 M191.771,354.176L191.771,354.176c3.64,0,6.586,2.947,6.586,6.586s-2.951,6.586-6.586,6.586c-3.64,0-6.586-2.947-6.586-6.586
		S188.137,354.176,191.771,354.176z M167.62,354.176L167.62,354.176c3.64,0,6.586,2.947,6.586,6.586s-2.951,6.586-6.586,6.586
		c-3.64,0-6.586-2.947-6.586-6.586S163.985,354.176,167.62,354.176z"/>
	<path style="fill:#ECF0F1;" d="M144.633,346.915h70.113c1.113,0,2.023,0.91,2.023,2.023s-0.91,2.023-2.023,2.023h-70.113
		c-1.113,0-2.023-0.91-2.023-2.023S143.519,346.915,144.633,346.915z"/>
</g>
<path style="fill:#FAD24D;" d="M172.216,278.341h19.528c0.485,0,0.887,0.397,0.887,0.887v67.688h-21.301v-67.688
	C171.328,278.739,171.726,278.341,172.216,278.341z"/>
<path style="fill:#EDB937;" d="M189.762,278.341h1.981c0.49,0,0.887,0.397,0.887,0.887v67.688h-2.868L189.762,278.341
	L189.762,278.341z"/>
<path style="fill:#FFFFFF;" d="M171.328,281.265h5.349v1.302h-5.349V281.265z M171.328,341.345L171.328,341.345h3.238v1.302h-3.238
	V341.345z M171.328,337.341L171.328,337.341h5.349v1.302h-5.349V337.341z M171.328,333.337L171.328,333.337h3.238v1.302h-3.238
	V333.337z M171.328,329.332L171.328,329.332h5.349v1.302h-5.349V329.332z M171.328,325.328L171.328,325.328h3.238v1.302h-3.238
	V325.328z M171.328,321.323L171.328,321.323h5.349v1.302h-5.349V321.323z M171.328,317.319L171.328,317.319h3.238v1.302h-3.238
	V317.319z M171.328,313.314L171.328,313.314h5.349v1.297h-5.349V313.314z M171.328,309.31L171.328,309.31h3.238v1.302h-3.238V309.31
	z M171.328,305.306L171.328,305.306h5.349v1.297h-5.349V305.306z M171.328,301.301L171.328,301.301h3.238v1.302h-3.238V301.301z
	 M171.328,297.296L171.328,297.296h5.349v1.302h-5.349V297.296z M171.328,293.292L171.328,293.292h3.238v1.302h-3.238V293.292z
	 M171.328,289.288L171.328,289.288h5.349v1.302h-5.349V289.288z M171.328,285.283L171.328,285.283h3.238v1.302h-3.238V285.283z"/>
<g>
</g>
<g>
</g>
<g>
</g>
<g>
</g>
<g>
</g>
<g>
</g>
<g>
</g>
<g>
</g>
<g>
</g>
<g>
</g>
<g>
</g>
<g>
</g>
<g>
</g>
<g>
</g>
<g>
</g>
</svg>
